# xmcd CD database file
#
# Track frame offsets:
#	150
#	15472
#	37931
#	60870
#	80863
#	97749
#	112120
#	146240
#	170684
#	201366
#	226548
#	257463
#	279594
#	298068
#	318395
#
# Disc length: 4511 seconds
#
# Revision: 0
# Processed by: cddbd v1.5PL3 Copyright (c) Steve Scherf et al.
# Submitted via: CdAid 2001.05.15.01
#
DISCID=cc119d0f
DTITLE=Varios - Essential Blues Classics [CD1 - BB King/ John Mayall's)
DYEAR=2002
DGENRE=Blues
TTITLE0=Introduction
TTITLE1=The Thrill is one 
TTITLE2=Sweet Little Angel
TTITLE3=Nobody loves me but my mother
TTITLE4=Guess Who
TTITLE5=King's Shuffle
TTITLE6=Outside Help
TTITLE7=I've got a mind to give up living
TTITLE8=Racehorse man
TTITLE9=Ridin'on the L&M
TTITLE10=Help me
TTITLE11=All your love
TTITLE12=I aint't got you
TTITLE13=The last Time
TTITLE14=Fascinating over
EXTD=
EXTT0=
EXTT1=
EXTT2=
EXTT3=
EXTT4=
EXTT5=
EXTT6=
EXTT7=
EXTT8=
EXTT9=
EXTT10=
EXTT11=
EXTT12=
EXTT13=
EXTT14=
PLAYORDER=
